<svg width="644" height="644" viewBox="0 0 644 644" fill="none" xmlns="http://www.w3.org/2000/svg">
<path d="M259.001 120C158.051 150.142 55.7469 226.084 86.0006 327C102.892 383.343 144.675 398.902 191.501 434.5C263.851 489.502 315.815 554.397 403.501 530.5C455.121 516.432 480.753 490.566 512.501 447.5C555.495 389.177 572.475 338.394 557.501 267.5C530.63 140.28 383.592 82.7989 259.001 120Z" fill="#FF98B9" fill-opacity="0.2"/>
<path d="M134.382 223.58C84.3139 316.275 65.6729 442.315 158.424 492.28C210.209 520.177 250.755 501.634 309.038 493.695C399.09 481.427 481.721 490.571 526.827 411.67C553.38 365.221 553.215 328.807 545.211 275.906C534.373 204.263 510.469 156.348 449.752 116.807C340.793 45.8493 196.177 109.175 134.382 223.58Z" fill="#FF98B9" fill-opacity="0.2"/>
</svg>
